<?xml version="1.0" encoding="utf-8"?>
<!-- Generator: Adobe Illustrator 21.0.0, SVG Export Plug-In . SVG Version: 6.00 Build 0)  -->
<svg version="1.1" xmlns="http://www.w3.org/2000/svg" xmlns:xlink="http://www.w3.org/1999/xlink" x="0px" y="0px"
	 viewBox="0 0 48 48" style="enable-background:new 0 0 48 48;" xml:space="preserve">
<style type="text/css">
	.st0{display:none;}
	
		.st1{display:inline;fill:none;stroke:#D43E83;stroke-width:1.84;stroke-linecap:round;stroke-linejoin:round;stroke-miterlimit:22.9256;}
	
		.st2{display:inline;fill:none;stroke:#C63D7B;stroke-width:1.84;stroke-linecap:round;stroke-linejoin:round;stroke-miterlimit:22.9256;}
	.st3{fill:#BA3C75;}
</style>
<g id="圖層_1" class="st0">
	<line class="st1" x1="16.8" y1="23.4" x2="19.4" y2="26"/>
	<line class="st1" x1="20.2" y1="20" x2="21.8" y2="21.6"/>
	<line class="st1" x1="23.6" y1="16.6" x2="26.1" y2="19.2"/>
	<line class="st1" x1="26.9" y1="13.3" x2="28.5" y2="14.9"/>
	<path class="st1" d="M30.3,9.9l2.6,2.6 M10.1,30.1l2.6,2.6"/>
	<line class="st1" x1="13.5" y1="26.7" x2="15.1" y2="28.3"/>
	<polygon class="st1" points="42,16.8 32.3,7.1 7.4,32.1 17,41.7 42,16.8 	"/>
	<path class="st1" d="M36.1,16c-0.8-0.8-2-0.8-2.8,0c-0.8,0.8-0.8,2,0,2.8c0.8,0.8,2,0.8,2.8,0C36.9,18,36.9,16.7,36.1,16L36.1,16z"
		/>
</g>
<g id="圖層_2" class="st0">
	<path class="st2" d="M14.6,14h20.2c0.4,0,0.6,0.4,0.7,0.7l6.5,25c0.1,0.4-0.3,0.7-0.7,0.7H8c-0.4,0-0.8-0.3-0.7-0.7l6.5-25
		C13.9,14.3,14.2,14,14.6,14L14.6,14z M24.7,6.4c1.8,0,3.3,1.5,3.3,3.3c0,1.8-1.5,3.3-3.3,3.3c-1.8,0-3.3-1.5-3.3-3.3
		C21.4,7.9,22.9,6.4,24.7,6.4L24.7,6.4z M19.1,21.9v11.3 M23.3,21.9l-3,5.4l3,6 M30.2,28.7V31c0,1.2-1,2.3-2.3,2.3h-0.3
		c-1.2,0-2.3-1-2.3-2.3v-6.8c0-1.2,1-2.3,2.3-2.3H28c1.2,0,2.3,1,2.3,2.3v0.6 M28.5,28.5h2.3"/>
</g>
<g id="圖層_3">
	<path class="st3" d="M20,42.6c0-0.1-0.1-0.1-0.1-0.1c-0.7-0.3-1.1-1-1-1.7c0.1-0.7,0.8-1.2,1.6-1.2c1.9,0,3.8,0,5.8,0
		c1,0,2,0,3.1,0c0.9,0,1.5,0.4,1.7,1.2c0.2,0.8-0.2,1.4-1.1,1.8c0,0,0,0,0,0.1C26.5,42.6,23.2,42.6,20,42.6z"/>
	<path class="st3" d="M29.8,6.2c0.1,0.1,0.2,0.1,0.3,0.1c0.6,0.3,0.9,0.9,0.9,1.6c-0.1,0.6-0.6,1.1-1.2,1.3c-0.1,0-0.3,0-0.4,0
		c-3,0-5.9,0-8.9,0c-1,0-1.7-0.7-1.6-1.7c0-0.6,0.4-1,0.9-1.2c0.1,0,0.2,0,0.3-0.1C23.2,6.2,26.5,6.2,29.8,6.2z"/>
	<path class="st3" d="M23.3,16.2c-0.4,0.3-0.8,0.7-1.2,1c-0.8,0.6-1.7,0.5-2.2-0.2c-0.6-0.7-0.4-1.6,0.3-2.2c1.2-1,2.4-2,3.7-2.9
		c0.6-0.5,1.4-0.5,2,0c1.2,1,2.5,2,3.7,3c0.7,0.6,0.8,1.5,0.3,2.2c-0.5,0.7-1.5,0.7-2.2,0.2c-0.4-0.3-0.8-0.6-1.2-1
		c0,5.5,0,10.9,0,16.4c0.2-0.1,0.3-0.2,0.4-0.3c0.3-0.2,0.6-0.5,0.9-0.7c0.7-0.5,1.6-0.4,2.1,0.2c0.5,0.7,0.5,1.6-0.2,2.2
		c-1.3,1-2.5,2-3.8,3c-0.3,0.2-0.6,0.3-0.9,0.3c-0.4,0-0.7-0.1-1-0.3c-1.2-1-2.5-2-3.7-3c-0.7-0.6-0.8-1.5-0.3-2.2
		c0.5-0.7,1.5-0.7,2.2-0.2c0.4,0.3,0.8,0.6,1.2,1C23.3,27.1,23.3,21.7,23.3,16.2z"/>
</g>
</svg>
